<svg width="1000" height="1000" viewBox="0 0 1000 1000" fill="none" xmlns="http://www.w3.org/2000/svg">
<path opacity="0.16" d="M875 427.833C930.542 459.917 930.542 540.083 875 572.167L500 788.667C444.458 820.75 375 780.667 375 716.5V283.5C375 219.333 444.458 179.25 500 211.333L875 427.833Z" fill="#F8F8F8"/>
<path d="M375 716.5L250 788.667C194.458 820.75 125 780.667 125 716.5V283.5C125 219.333 194.458 179.25 250 211.333L375 283.5M375 716.5V283.5M375 716.5C375 780.667 444.458 820.75 500 788.667L875 572.167C930.542 540.083 930.542 459.917 875 427.833L500 211.333C444.458 179.25 375 219.333 375 283.5" stroke="#F8F8F8" stroke-width="83.3333" stroke-linejoin="round"/>
</svg>
