<svg width="75" height="75" viewBox="0 0 1000 1000" fill="none" xmlns="http://www.w3.org/2000/svg">
<path d="M443.75 656.25L646.875 526.042C656.597 519.792 661.458 511.111 661.458 500C661.458 488.889 656.597 480.209 646.875 473.959L443.75 343.75C433.333 336.806 422.736 336.278 411.958 342.167C401.181 348.056 395.806 357.264 395.833 369.792V630.209C395.833 642.709 401.222 651.917 412 657.834C422.778 663.75 433.361 663.222 443.75 656.25ZM500 916.667C442.361 916.667 388.195 905.722 337.5 883.834C286.806 861.945 242.708 832.264 205.208 794.792C167.708 757.292 138.028 713.195 116.167 662.5C94.3056 611.806 83.3612 557.639 83.3334 500C83.3334 442.361 94.2778 388.195 116.167 337.5C138.056 286.806 167.736 242.709 205.208 205.209C242.708 167.709 286.806 138.028 337.5 116.167C388.195 94.3057 442.361 83.3613 500 83.3335C557.639 83.3335 611.806 94.2779 662.5 116.167C713.194 138.056 757.292 167.736 794.792 205.209C832.292 242.709 861.986 286.806 883.875 337.5C905.764 388.195 916.695 442.361 916.667 500C916.667 557.639 905.722 611.806 883.833 662.5C861.945 713.195 832.264 757.292 794.792 794.792C757.292 832.292 713.194 861.986 662.5 883.875C611.806 905.764 557.639 916.695 500 916.667ZM500 833.334C593.056 833.334 671.875 801.042 736.458 736.458C801.042 671.875 833.333 593.056 833.333 500C833.333 406.945 801.042 328.125 736.458 263.542C671.875 198.958 593.056 166.667 500 166.667C406.944 166.667 328.125 198.958 263.542 263.542C198.958 328.125 166.667 406.945 166.667 500C166.667 593.056 198.958 671.875 263.542 736.458C328.125 801.042 406.944 833.334 500 833.334Z" fill="#F8F8F8"/>
</svg>
