<svg width="75" height="75" viewBox="0 0 1000 1000" fill="none" xmlns="http://www.w3.org/2000/svg">
<path opacity="0.16" d="M125 572.167C69.4582 540.083 69.4582 459.917 125 427.833L500 211.333C555.542 179.25 625 219.333 625 283.5L625 716.5C625 780.667 555.542 820.75 500 788.667L125 572.167Z" fill="#F8F8F8"/>
<path d="M625 283.5L750 211.333C805.542 179.25 875 219.333 875 283.5L875 716.5C875 780.667 805.542 820.75 750 788.667L625 716.5M625 283.5L625 716.5M625 283.5C625 219.333 555.542 179.25 500 211.333L125 427.833C69.4582 459.917 69.4582 540.083 125 572.167L500 788.667C555.542 820.75 625 780.667 625 716.5" stroke="#F8F8F8" stroke-width="83.3333" stroke-linejoin="round"/>
</svg>
