<svg width="75" height="75" viewBox="0 0 1000 1000" fill="none" xmlns="http://www.w3.org/2000/svg">
<path d="M750 166.667L875 291.667L750 416.667M750 833.333L875 708.333L750 583.333" stroke="#F8F8F8" stroke-width="83.3333" stroke-linecap="round" stroke-linejoin="round"/>
<path d="M125 291.667H250C305.253 291.667 358.244 313.616 397.314 352.686C436.384 391.756 458.333 444.747 458.333 500C458.333 555.254 480.283 608.244 519.353 647.314C558.423 686.384 611.413 708.333 666.667 708.333H875M875 291.667H666.667C621.579 291.6 577.697 306.228 541.667 333.333M375 666.667C338.961 693.756 295.085 708.382 250 708.333H125" stroke="#F8F8F8" stroke-width="83.3333" stroke-linecap="round" stroke-linejoin="round"/>
</svg>
